<svg width="50" height="50" viewBox="0 0 50 50" fill="none" xmlns="http://www.w3.org/2000/svg">
<path d="M23.5413 5.3131C23.1403 5.31388 22.7394 5.32306 22.3388 5.34064C21.4781 5.49366 21.0806 5.87052 20.8648 6.30187C20.627 6.77745 20.6363 7.41739 20.9014 7.98644C21.1668 8.55577 21.6534 9.0212 22.3328 9.19503C23.0123 9.36886 23.9476 9.27902 25.177 8.49318L26.1597 10.0313C24.615 11.0186 23.1203 11.279 21.8811 10.9619C20.6421 10.6448 19.7226 9.77804 19.2475 8.75851C18.7999 7.79796 18.7176 6.67101 19.1469 5.67023C14.9558 6.34796 11.1609 7.95519 8.24597 10.2173C7.28796 11.261 7.19421 12.4741 7.61413 13.3026C8.08581 14.2329 9.19714 14.912 11.4198 14.2089L11.9721 15.9485C9.18112 16.8313 6.88063 15.891 5.98776 14.1296C5.76999 13.7002 5.63698 13.2355 5.58474 12.7563C5.11462 13.3141 4.69021 13.8947 4.31521 14.4988L4.32751 14.5047C3.4863 16.4203 3.46716 17.7472 3.80251 18.6094C4.13806 19.4717 4.84108 20.0195 5.9236 20.3215C8.08845 20.925 11.594 20.1968 14.0626 18.3531C15.1192 17.5641 16.1209 15.6503 16.2081 14.1661C16.2515 13.4239 16.0943 12.8376 15.7838 12.4632C15.4732 12.0888 14.9759 11.8086 13.9466 11.8193L13.9283 9.99445C15.343 9.9798 16.4918 10.4587 17.1876 11.2976C17.8833 12.1364 18.0919 13.2167 18.0299 14.273C17.9058 16.3856 16.7999 18.5866 15.155 19.815C12.2375 21.9941 8.38396 22.9015 5.43532 22.0794C4.06931 21.6985 2.86013 20.8698 2.23708 19.5862C1.30485 24.0243 2.65925 28.1468 5.23688 30.9997C5.5738 31.3728 5.93239 31.7253 6.30817 32.0525C6.03923 31.2822 5.91599 30.4802 5.94489 29.6996C5.99665 28.3007 6.53884 26.9315 7.62653 25.9858C8.51853 25.2098 9.75075 24.7621 11.2245 24.7651C11.3227 24.7651 11.4231 24.7668 11.5235 24.7709C11.753 24.7807 11.9886 24.8006 12.2286 24.832L11.9903 26.6418C10.468 26.4418 9.48005 26.7904 8.82273 27.362C8.1655 27.9337 7.8029 28.7892 7.76677 29.7668C7.6945 31.7223 8.94548 34.0057 11.6427 34.668L11.6396 34.6863C14.2951 35.1932 17.2584 34.7227 20.2334 32.907C20.2351 32.9059 20.2376 32.9054 20.2394 32.9041C20.8586 32.4695 21.1921 32.044 21.3564 31.6773C21.5503 31.2444 21.5462 30.8675 21.4082 30.4626C21.1324 29.653 20.1445 28.8208 19.2384 28.5889C17.7734 28.2139 16.8427 28.7291 16.4064 29.3428C15.9701 29.9561 15.9435 30.5586 16.617 31.082L15.4968 32.5225C14.1114 31.445 14.023 29.5452 14.9202 28.2837C15.5932 27.3376 16.7742 26.6894 18.1979 26.648C18.2579 26.6458 18.318 26.6448 18.378 26.645C18.7985 26.648 19.2364 26.7058 19.6902 26.8218C21.2044 27.2095 22.6043 28.3137 23.1355 29.8735C23.2772 30.2917 23.3394 30.7327 23.3187 31.1737C24.9506 30.34 26.6715 29.5995 28.4244 29.0435C31.3693 27.6978 32.6461 25.3386 32.5963 23.3521C32.546 21.3508 31.3085 19.6665 28.458 19.3847L28.6381 17.5689C32.2187 17.923 34.3472 20.4837 34.4181 23.3062C34.4593 24.9507 33.8562 26.6619 32.642 28.1187C34.2115 27.9429 35.7713 27.9727 37.2836 28.2776C36.9757 27.6455 36.8265 26.9613 36.8473 26.2817C36.9134 24.1297 38.7438 22.1222 41.6203 22.0916C41.8168 22.0897 42.0133 22.0968 42.2091 22.1129L42.0627 23.9318C39.6284 23.7366 38.7131 25.0144 38.6722 26.3396C38.632 27.6501 39.5067 29.1171 42.014 29.3118C44.7777 29.3362 46.759 27.8374 47.7299 25.6101C49.0297 22.628 48.4132 18.1572 44.3271 14.0683C44.2498 13.9908 44.173 13.9127 44.0952 13.8363C44.0523 14.2005 43.9589 14.5569 43.8176 14.8953C43.1096 16.5936 41.4511 17.7399 39.7283 18.0601C37.3518 18.5017 35.4031 17.5379 34.5037 16.0673C33.6043 14.5969 33.8404 12.5175 35.4588 11.4228L36.4812 12.9364C35.6108 13.5251 35.575 14.3222 36.06 15.1152C36.5451 15.9083 37.6391 16.5952 39.3956 16.2689C40.4997 16.0636 41.7292 15.1624 42.1329 14.1937C42.335 13.7093 42.3741 13.2306 42.1727 12.6829C42.0092 12.2381 41.6662 11.7294 41.0282 11.1937L41.0099 11.1785C38.3424 9.16808 35.5082 7.72218 32.6359 6.76866C32.6377 6.77179 32.6403 6.77452 32.6421 6.77775C33.2948 7.97111 33.3432 9.32482 32.9412 10.5223C32.1372 12.9173 29.614 14.8043 26.4927 14.7C25.8142 14.6776 25.1685 15.0047 24.6191 15.6431C24.0696 16.2815 23.6684 17.2166 23.5754 18.2127C23.3893 20.2049 24.2514 22.4008 27.6129 23.4861L27.0508 25.2227C23.0387 23.9274 21.5009 20.7748 21.7558 18.0449C21.8835 16.6802 22.4107 15.4119 23.236 14.4531C24.0613 13.4943 25.2355 12.8318 26.5534 12.8754C28.901 12.9537 30.6865 11.5 31.2103 9.93956C31.4722 9.15948 31.4383 8.38322 31.0394 7.65392C30.6519 6.94572 29.8841 6.24542 28.5095 5.73439C26.8689 5.44946 25.2065 5.30849 23.5413 5.3131ZM33.4258 29.9164C29.3325 30.2494 24.8939 32.2016 21.1914 34.4635C15.7246 37.8031 9.97165 37.0741 5.88981 34.0455C7.49567 39.792 13.1859 40.9584 19.1222 39.505C19.7163 39.2819 20.3 38.8665 20.7977 38.3302C21.4869 37.5873 21.9862 36.6241 22.1434 35.8277L23.9348 36.1818C23.6961 37.391 23.0483 38.5905 22.1374 39.5724C21.2633 40.5143 20.1247 41.2667 18.8079 41.4644C18.1471 42.9361 17.6034 44.3628 17.3827 45.3614C17.036 46.9298 18.77 47.5319 19.5464 45.9503C21.404 42.1668 24.0259 38.7989 27.3008 35.8949C29.8462 34.2198 32.028 32.1544 33.4258 29.9164H33.4258Z" fill="#AF977B"/>
</svg>
