<svg width="40" height="40" viewBox="0 0 40 40" fill="none" xmlns="http://www.w3.org/2000/svg">
<path fill-rule="evenodd" clip-rule="evenodd" d="M9.68573 2.24857C7.71301 2.24857 5.82105 3.03203 4.42586 4.42668C3.03067 5.82133 2.24649 7.71299 2.24573 9.68571V29.5257C2.24573 31.4989 3.02958 33.3913 4.42485 34.7866C5.82012 36.1819 7.71252 36.9657 9.68573 36.9657H29.5257C31.4984 36.965 33.3901 36.1808 34.7848 34.7856C36.1794 33.3904 36.9629 31.4984 36.9629 29.5257V9.68571C36.9621 7.71349 36.1783 5.82226 34.7837 4.42769C33.3892 3.03312 31.4979 2.24932 29.5257 2.24857H9.68573ZM31.6657 9.69714C31.6657 10.2655 31.44 10.8105 31.0381 11.2124C30.6362 11.6142 30.0912 11.84 29.5229 11.84C28.9545 11.84 28.4095 11.6142 28.0076 11.2124C27.6058 10.8105 27.38 10.2655 27.38 9.69714C27.38 9.12882 27.6058 8.58377 28.0076 8.18191C28.4095 7.78005 28.9545 7.55428 29.5229 7.55428C30.0912 7.55428 30.6362 7.78005 31.0381 8.18191C31.44 8.58377 31.6657 9.12882 31.6657 9.69714ZM19.6086 13.6629C18.0324 13.6629 16.5209 14.289 15.4064 15.4035C14.2919 16.518 13.6657 18.0296 13.6657 19.6057C13.6657 21.1819 14.2919 22.6934 15.4064 23.8079C16.5209 24.9224 18.0324 25.5486 19.6086 25.5486C21.1847 25.5486 22.6963 24.9224 23.8108 23.8079C24.9253 22.6934 25.5514 21.1819 25.5514 19.6057C25.5514 18.0296 24.9253 16.518 23.8108 15.4035C22.6963 14.289 21.1847 13.6629 19.6086 13.6629ZM10.8057 19.6057C10.8057 17.2718 11.7329 15.0335 13.3832 13.3832C15.0335 11.7328 17.2718 10.8057 19.6057 10.8057C21.9396 10.8057 24.1779 11.7328 25.8283 13.3832C27.4786 15.0335 28.4057 17.2718 28.4057 19.6057C28.4057 21.9396 27.4786 24.1779 25.8283 25.8283C24.1779 27.4786 21.9396 28.4057 19.6057 28.4057C17.2718 28.4057 15.0335 27.4786 13.3832 25.8283C11.7329 24.1779 10.8057 21.9396 10.8057 19.6057Z" fill="#A63232"/>
</svg>
