<svg width="121" height="87" viewBox="0 0 121 87" fill="none" xmlns="http://www.w3.org/2000/svg">
<path d="M88.965 17.025H94.95C94.95 17.0483 94.95 17.165 94.95 17.375C94.9733 17.585 94.9617 17.7833 94.915 17.97C94.8917 18.1333 94.845 18.32 94.775 18.53C94.6117 19.0433 94.2033 19.3233 93.55 19.37L92.92 19.44L86.2 41H82.49L77.975 27L73.285 41H69.435L63.065 19.51L61.035 19.3C61.0117 19.0433 61 18.7867 61 18.53C61.0233 18.25 61.1633 17.935 61.42 17.585C61.6767 17.2117 62.0617 17.025 62.575 17.025H70.415C70.345 17.9117 70.24 18.46 70.1 18.67C69.7733 19.09 69.365 19.3233 68.875 19.37L67.895 19.44L72.095 35.925L77.415 19.44H80.32L85.08 35.925L89.84 19.51L87.39 19.3C87.25 17.7833 87.775 17.025 88.965 17.025ZM108.73 23.325H113.735C113.735 23.325 113.735 23.4183 113.735 23.605C113.735 24.8183 113.221 25.5067 112.195 25.67L112.055 25.705L106.245 39.81H106.28C106.163 40.0667 105.953 40.5567 105.65 41.28C105.346 42.0033 105.125 42.505 104.985 42.785C104.868 43.0883 104.658 43.555 104.355 44.185C104.051 44.815 103.806 45.27 103.62 45.55C103.433 45.8533 103.188 46.2383 102.885 46.705C102.581 47.1717 102.29 47.51 102.01 47.72C101.753 47.9533 101.45 48.1983 101.1 48.455C100.47 48.9217 99.6763 49.155 98.7196 49.155C97.7629 49.155 96.9929 48.91 96.4096 48.42C95.8263 47.93 95.5346 47.3233 95.5346 46.6C95.5346 45.9 95.7446 45.3283 96.1646 44.885C96.5846 44.465 97.0513 44.255 97.5646 44.255C98.0779 44.255 98.3929 44.2783 98.5096 44.325C98.2529 45.5617 98.5213 46.18 99.3146 46.18C99.9913 46.18 100.703 45.445 101.45 43.975C102.22 42.5283 102.838 41.0467 103.305 39.53L97.1096 25.81H96.9346L95.0096 25.6C94.9396 25.46 94.9513 25.145 95.0446 24.655C95.2546 23.7683 95.7679 23.325 96.5846 23.325H103.83C103.76 24.1883 103.655 24.725 103.515 24.935C103.165 25.3317 102.756 25.5767 102.29 25.67L101.905 25.74L105.44 34.49L108.8 25.775L107.155 25.6C107.015 24.0833 107.54 23.325 108.73 23.325Z" fill="#AF977B"/>
<path d="M2.22 49.57H8.73C11.19 49.57 13.06 50.09 14.34 51.13C15.62 52.17 16.26 53.56 16.26 55.3C16.26 57.54 15.51 59.22 14.01 60.34C12.53 61.44 10.51 61.99 7.95 61.99C7.49 61.99 6.88 61.97 6.12 61.93V68.32L8.49 68.5C8.59 69.5 8.27 70 7.53 70H1.23V69.76C1.23 68.94 1.58 68.5 2.28 68.44L3.51 68.38V51.25L1.32 51.07C1.26 50.07 1.56 49.57 2.22 49.57ZM6.12 60.43L7.62 60.46C11.56 60.46 13.53 58.85 13.53 55.63C13.53 52.39 11.64 50.87 7.86 51.07L6.12 51.13V60.43ZM28.3057 65.65C28.3057 66.93 27.7657 68.06 26.6857 69.04C25.6257 70 24.1957 70.47 22.3957 70.45C21.1157 70.43 19.9857 70.17 19.0057 69.67C18.0257 69.15 17.5457 68.44 17.5657 67.54C17.5657 67 17.7357 66.58 18.0757 66.28C18.4357 65.98 18.8657 65.84 19.3657 65.86C19.5457 66.72 19.9457 67.41 20.5657 67.93C21.1857 68.43 21.9557 68.69 22.8757 68.71C23.7957 68.71 24.5557 68.51 25.1557 68.11C25.7557 67.71 26.0657 67.16 26.0857 66.46C26.1057 65.76 25.8757 65.23 25.3957 64.87C24.9157 64.51 24.1957 64.15 23.2357 63.79C22.2757 63.41 21.5757 63.12 21.1357 62.92C20.6957 62.72 20.2057 62.44 19.6657 62.08C18.5857 61.36 18.0457 60.34 18.0457 59.02C18.0657 57.7 18.6157 56.66 19.6957 55.9C20.7757 55.12 21.9457 54.74 23.2057 54.76C24.4857 54.76 25.5357 54.97 26.3557 55.39C27.1957 55.81 27.6057 56.44 27.5857 57.28C27.5857 57.88 27.3857 58.32 26.9857 58.6C26.6057 58.88 26.1657 58.99 25.6657 58.93C25.6857 58.23 25.4457 57.65 24.9457 57.19C24.4457 56.73 23.7857 56.49 22.9657 56.47C22.1657 56.45 21.5057 56.63 20.9857 57.01C20.4657 57.37 20.1957 57.84 20.1757 58.42C20.1757 59 20.4657 59.48 21.0457 59.86C21.6257 60.24 22.4457 60.64 23.5057 61.06C24.5657 61.48 25.2957 61.79 25.6957 61.99C26.0957 62.17 26.5357 62.44 27.0157 62.8C27.8757 63.42 28.3057 64.37 28.3057 65.65ZM36.3232 70H30.3232V69.76C30.3232 69.56 30.3732 69.34 30.4732 69.1C30.6132 68.74 30.9132 68.54 31.3732 68.5L32.5432 68.44V56.86L31.1032 56.71C30.5432 56.65 30.2632 56.17 30.2632 55.27L35.0932 54.73V68.38L37.3132 68.56C37.4132 69.52 37.0832 70 36.3232 70ZM34.7932 52.24C34.4732 52.54 34.0632 52.69 33.5632 52.69C33.0632 52.69 32.6532 52.54 32.3332 52.24C32.0132 51.92 31.8532 51.51 31.8532 51.01C31.8532 50.51 32.0132 50.1 32.3332 49.78C32.6532 49.46 33.0632 49.3 33.5632 49.3C34.0632 49.3 34.4732 49.46 34.7932 49.78C35.1132 50.1 35.2732 50.51 35.2732 51.01C35.2732 51.51 35.1132 51.92 34.7932 52.24ZM46.308 54.73C47.648 54.73 48.708 55.01 49.488 55.57C50.288 56.11 50.688 56.84 50.688 57.76C50.688 58.4 50.488 58.87 50.088 59.17C49.708 59.45 49.258 59.57 48.738 59.53C48.718 58.75 48.468 58.07 47.988 57.49C47.528 56.91 46.818 56.62 45.858 56.62C44.538 56.62 43.528 57.17 42.828 58.27C42.148 59.37 41.808 60.79 41.808 62.53C41.808 64.25 42.158 65.67 42.858 66.79C43.558 67.89 44.668 68.44 46.188 68.44C47.708 68.44 49.108 67.91 50.388 66.85C50.708 67.05 50.868 67.35 50.868 67.75C50.868 68.35 50.288 68.95 49.128 69.55C47.988 70.15 46.738 70.45 45.378 70.45C43.418 70.45 41.888 69.79 40.788 68.47C39.708 67.13 39.158 65.28 39.138 62.92C39.118 60.56 39.748 58.61 41.028 57.07C42.308 55.51 44.068 54.73 46.308 54.73ZM56.5683 58.24C55.8883 59.36 55.5483 60.83 55.5483 62.65C55.5483 64.47 55.8883 65.94 56.5683 67.06C57.2483 68.16 58.2183 68.71 59.4783 68.71C60.7383 68.69 61.7183 68.14 62.4183 67.06C63.1183 65.96 63.4683 64.51 63.4683 62.71C63.4683 60.89 63.1383 59.4 62.4783 58.24C61.8183 57.08 60.8383 56.51 59.5383 56.53C58.2583 56.53 57.2683 57.1 56.5683 58.24ZM59.7483 54.73C61.5483 54.73 63.0583 55.34 64.2783 56.56C65.4983 57.78 66.1183 59.67 66.1383 62.23C66.1583 64.77 65.5583 66.78 64.3383 68.26C63.1183 69.72 61.4483 70.45 59.3283 70.45C57.2283 70.45 55.6283 69.81 54.5283 68.53C53.4483 67.23 52.8983 65.35 52.8783 62.89C52.8583 60.43 53.4583 58.46 54.6783 56.98C55.9183 55.48 57.6083 54.73 59.7483 54.73ZM74.4656 70H68.5256V69.76C68.5256 69.56 68.5656 69.34 68.6456 69.1C68.8056 68.74 69.1156 68.54 69.5756 68.5L70.7756 68.44V51.1L69.3356 50.95C68.7756 50.89 68.4956 50.41 68.4956 49.51L73.3256 48.91V68.38L75.4556 68.56C75.5556 69.52 75.2256 70 74.4656 70ZM80.9433 58.24C80.2633 59.36 79.9233 60.83 79.9233 62.65C79.9233 64.47 80.2633 65.94 80.9433 67.06C81.6233 68.16 82.5933 68.71 83.8533 68.71C85.1133 68.69 86.0933 68.14 86.7933 67.06C87.4933 65.96 87.8433 64.51 87.8433 62.71C87.8433 60.89 87.5133 59.4 86.8533 58.24C86.1933 57.08 85.2133 56.51 83.9133 56.53C82.6333 56.53 81.6433 57.1 80.9433 58.24ZM84.1233 54.73C85.9233 54.73 87.4333 55.34 88.6533 56.56C89.8733 57.78 90.4933 59.67 90.5133 62.23C90.5333 64.77 89.9333 66.78 88.7133 68.26C87.4933 69.72 85.8233 70.45 83.7033 70.45C81.6033 70.45 80.0033 69.81 78.9033 68.53C77.8233 67.23 77.2733 65.35 77.2533 62.89C77.2333 60.43 77.8333 58.46 79.0533 56.98C80.2933 55.48 81.9833 54.73 84.1233 54.73ZM98.0606 65.47C97.5806 65.47 97.0906 65.42 96.5906 65.32C96.1106 65.92 95.8906 66.36 95.9306 66.64C95.9706 66.84 96.2006 66.97 96.6206 67.03C97.0606 67.09 97.8106 67.14 98.8706 67.18C101.191 67.22 102.851 67.51 103.851 68.05C104.851 68.59 105.351 69.56 105.351 70.96C105.351 72.72 104.681 74.14 103.341 75.22C102.021 76.3 100.351 76.84 98.3306 76.84C96.3106 76.84 94.7806 76.46 93.7406 75.7C92.7006 74.94 92.1806 73.92 92.1806 72.64C92.1806 71.36 92.9006 70.13 94.3406 68.95C93.9206 68.65 93.7106 68.16 93.7106 67.48C93.7106 66.78 94.2106 65.89 95.2106 64.81C93.7106 63.99 92.9106 62.59 92.8106 60.61C92.7306 58.97 93.2006 57.58 94.2206 56.44C95.2606 55.3 96.6506 54.73 98.3906 54.73C99.6106 54.73 100.631 55 101.451 55.54L105.201 54.55C105.381 54.79 105.481 55.13 105.501 55.57C105.521 55.99 105.421 56.3 105.201 56.5C104.901 56.66 104.061 56.72 102.681 56.68C103.281 57.54 103.561 58.71 103.521 60.19C103.501 61.65 103.001 62.9 102.021 63.94C101.061 64.96 99.7406 65.47 98.0606 65.47ZM98.1806 56.41C97.2806 56.43 96.5606 56.79 96.0206 57.49C95.5006 58.19 95.2406 59.08 95.2406 60.16C95.2406 61.24 95.4906 62.13 95.9906 62.83C96.5106 63.53 97.2206 63.87 98.1206 63.85C99.0406 63.83 99.7606 63.47 100.281 62.77C100.821 62.05 101.091 61.16 101.091 60.1C101.091 59.02 100.831 58.13 100.311 57.43C99.8106 56.73 99.1006 56.39 98.1806 56.41ZM94.2206 72.1C94.2206 72.98 94.6106 73.65 95.3906 74.11C96.1706 74.57 97.2706 74.8 98.6906 74.8C100.111 74.8 101.271 74.49 102.171 73.87C103.071 73.25 103.521 72.5 103.521 71.62C103.521 70.68 102.821 70.1 101.421 69.88C100.501 69.74 99.4306 69.65 98.2106 69.61C96.9906 69.57 96.1206 69.51 95.6006 69.43C94.6806 70.35 94.2206 71.24 94.2206 72.1ZM120.463 68.95C120.463 69.97 119.793 70.48 118.453 70.48C117.133 70.48 116.333 69.89 116.053 68.71C114.753 69.87 113.313 70.45 111.733 70.45C110.173 70.45 108.983 70.09 108.163 69.37C107.343 68.65 106.933 67.67 106.933 66.43C106.933 65.19 107.393 64.15 108.313 63.31C109.253 62.47 110.793 62.05 112.933 62.05C114.013 62.05 115.013 62.16 115.933 62.38V60.31C115.933 57.79 114.873 56.53 112.753 56.53C111.793 56.53 111.073 56.82 110.593 57.4C110.133 57.96 109.883 58.63 109.843 59.41C109.263 59.47 108.783 59.37 108.403 59.11C108.023 58.85 107.833 58.42 107.833 57.82C107.833 56.94 108.283 56.21 109.183 55.63C110.103 55.03 111.293 54.73 112.753 54.73C113.893 54.73 114.823 54.9 115.543 55.24C116.263 55.58 116.813 55.94 117.193 56.32C118.053 57.22 118.483 58.5 118.483 60.16V68.71L120.463 68.95ZM115.933 64.3C115.053 63.88 114.073 63.67 112.993 63.67C111.913 63.67 111.093 63.89 110.533 64.33C109.973 64.75 109.693 65.35 109.693 66.13C109.693 66.89 109.923 67.49 110.383 67.93C110.843 68.35 111.493 68.56 112.333 68.56C113.653 68.56 114.853 68.1 115.933 67.18V64.3Z" fill="#A63232"/>
<path d="M23.5413 5.3131C23.1403 5.31388 22.7394 5.32306 22.3388 5.34064C21.4781 5.49366 21.0806 5.87052 20.8648 6.30187C20.627 6.77745 20.6363 7.41739 20.9014 7.98644C21.1668 8.55577 21.6534 9.0212 22.3328 9.19503C23.0123 9.36886 23.9476 9.27902 25.177 8.49318L26.1597 10.0313C24.615 11.0186 23.1203 11.279 21.8811 10.9619C20.6421 10.6448 19.7226 9.77804 19.2475 8.75851C18.7999 7.79796 18.7176 6.67101 19.1469 5.67023C14.9558 6.34796 11.1609 7.95519 8.24597 10.2173C7.28796 11.261 7.19421 12.4741 7.61413 13.3026C8.08581 14.2329 9.19714 14.912 11.4198 14.2089L11.9721 15.9485C9.18112 16.8313 6.88063 15.891 5.98776 14.1296C5.76999 13.7002 5.63698 13.2355 5.58474 12.7563C5.11462 13.3141 4.69021 13.8947 4.31521 14.4988L4.32751 14.5047C3.4863 16.4203 3.46716 17.7472 3.80251 18.6094C4.13806 19.4717 4.84108 20.0195 5.9236 20.3215C8.08845 20.925 11.594 20.1968 14.0626 18.3531C15.1192 17.5641 16.1209 15.6503 16.2081 14.1661C16.2515 13.4239 16.0943 12.8376 15.7838 12.4632C15.4732 12.0888 14.9759 11.8086 13.9466 11.8193L13.9283 9.99445C15.343 9.9798 16.4918 10.4587 17.1876 11.2976C17.8833 12.1364 18.0919 13.2167 18.0299 14.273C17.9058 16.3856 16.7999 18.5866 15.155 19.815C12.2375 21.9941 8.38396 22.9015 5.43532 22.0794C4.06931 21.6985 2.86013 20.8698 2.23708 19.5862C1.30485 24.0243 2.65925 28.1468 5.23688 30.9997C5.5738 31.3728 5.93239 31.7253 6.30817 32.0525C6.03923 31.2822 5.91599 30.4802 5.94489 29.6996C5.99665 28.3007 6.53884 26.9315 7.62653 25.9858C8.51853 25.2098 9.75075 24.7621 11.2245 24.7651C11.3227 24.7651 11.4231 24.7668 11.5235 24.7709C11.753 24.7807 11.9886 24.8006 12.2286 24.832L11.9903 26.6418C10.468 26.4418 9.48005 26.7904 8.82273 27.362C8.1655 27.9337 7.8029 28.7892 7.76677 29.7668C7.6945 31.7223 8.94548 34.0057 11.6427 34.668L11.6396 34.6863C14.2951 35.1932 17.2584 34.7227 20.2334 32.907C20.2351 32.9059 20.2376 32.9054 20.2394 32.9041C20.8586 32.4695 21.1921 32.044 21.3564 31.6773C21.5503 31.2444 21.5462 30.8675 21.4082 30.4626C21.1324 29.653 20.1445 28.8208 19.2384 28.5889C17.7734 28.2139 16.8427 28.7291 16.4064 29.3428C15.9701 29.9561 15.9435 30.5586 16.617 31.082L15.4968 32.5225C14.1114 31.445 14.023 29.5452 14.9202 28.2837C15.5932 27.3376 16.7742 26.6894 18.1979 26.648C18.2579 26.6458 18.318 26.6448 18.378 26.645C18.7985 26.648 19.2364 26.7058 19.6902 26.8218C21.2044 27.2095 22.6043 28.3137 23.1355 29.8735C23.2772 30.2917 23.3394 30.7327 23.3187 31.1737C24.9506 30.34 26.6715 29.5995 28.4244 29.0435C31.3693 27.6978 32.6461 25.3386 32.5963 23.3521C32.546 21.3508 31.3085 19.6665 28.458 19.3847L28.6381 17.5689C32.2187 17.923 34.3472 20.4837 34.4181 23.3062C34.4593 24.9507 33.8562 26.6619 32.642 28.1187C34.2115 27.9429 35.7713 27.9727 37.2836 28.2776C36.9757 27.6455 36.8265 26.9613 36.8473 26.2817C36.9134 24.1297 38.7438 22.1222 41.6203 22.0916C41.8168 22.0897 42.0133 22.0968 42.2091 22.1129L42.0627 23.9318C39.6284 23.7366 38.7131 25.0144 38.6722 26.3396C38.632 27.6501 39.5067 29.1171 42.014 29.3118C44.7777 29.3362 46.759 27.8374 47.7299 25.6101C49.0297 22.628 48.4132 18.1572 44.3271 14.0683C44.2498 13.9908 44.173 13.9127 44.0952 13.8363C44.0523 14.2005 43.9589 14.5569 43.8176 14.8953C43.1096 16.5936 41.4511 17.7399 39.7283 18.0601C37.3518 18.5017 35.4031 17.5379 34.5037 16.0673C33.6043 14.5969 33.8404 12.5175 35.4588 11.4228L36.4812 12.9364C35.6108 13.5251 35.575 14.3222 36.06 15.1152C36.5451 15.9083 37.6391 16.5952 39.3956 16.2689C40.4997 16.0636 41.7292 15.1624 42.1329 14.1937C42.335 13.7093 42.3741 13.2306 42.1727 12.6829C42.0092 12.2381 41.6662 11.7294 41.0282 11.1937L41.0099 11.1785C38.3424 9.16808 35.5082 7.72218 32.6359 6.76866C32.6377 6.77179 32.6403 6.77452 32.6421 6.77775C33.2948 7.97111 33.3432 9.32482 32.9412 10.5223C32.1372 12.9173 29.614 14.8043 26.4927 14.7C25.8142 14.6776 25.1685 15.0047 24.6191 15.6431C24.0696 16.2815 23.6684 17.2166 23.5754 18.2127C23.3893 20.2049 24.2514 22.4008 27.6129 23.4861L27.0508 25.2227C23.0387 23.9274 21.5009 20.7748 21.7558 18.0449C21.8835 16.6802 22.4107 15.4119 23.236 14.4531C24.0613 13.4943 25.2355 12.8318 26.5534 12.8754C28.901 12.9537 30.6865 11.5 31.2103 9.93956C31.4722 9.15948 31.4383 8.38322 31.0394 7.65392C30.6519 6.94572 29.8841 6.24542 28.5095 5.73439C26.8689 5.44946 25.2065 5.30849 23.5413 5.3131ZM33.4258 29.9164C29.3325 30.2494 24.8939 32.2016 21.1914 34.4635C15.7246 37.8031 9.97165 37.0741 5.88981 34.0455C7.49567 39.792 13.1859 40.9584 19.1222 39.505C19.7163 39.2819 20.3 38.8665 20.7977 38.3302C21.4869 37.5873 21.9862 36.6241 22.1434 35.8277L23.9348 36.1818C23.6961 37.391 23.0483 38.5905 22.1374 39.5724C21.2633 40.5143 20.1247 41.2667 18.8079 41.4644C18.1471 42.9361 17.6034 44.3628 17.3827 45.3614C17.036 46.9298 18.77 47.5319 19.5464 45.9503C21.404 42.1668 24.0259 38.7989 27.3008 35.8949C29.8462 34.2198 32.028 32.1544 33.4258 29.9164H33.4258Z" fill="#AF977B"/>
</svg>
