<svg width="213" height="208" viewBox="0 0 213 208" fill="none" xmlns="http://www.w3.org/2000/svg">
<path d="M106.5 0.25C92.5471 0.25 78.7307 2.99824 65.8399 8.3378C52.949 13.6774 41.2361 21.5037 31.3699 31.3699C11.4442 51.2956 0.25 78.3207 0.25 106.5C0.25 153.463 30.7438 193.306 72.925 207.438C78.2375 208.287 79.9375 204.994 79.9375 202.125V184.169C50.5063 190.544 44.2375 169.931 44.2375 169.931C39.35 157.606 32.4438 154.312 32.4438 154.312C22.775 147.725 33.1875 147.937 33.1875 147.937C43.8125 148.681 49.4438 158.881 49.4438 158.881C58.6875 175.031 74.3062 170.25 80.3625 167.7C81.3187 160.794 84.0813 156.119 87.0563 153.463C63.4688 150.806 38.7125 141.669 38.7125 101.188C38.7125 89.3937 42.75 79.9375 49.6563 72.3937C48.5938 69.7375 44.875 58.6875 50.7188 44.3438C50.7188 44.3438 59.6438 41.475 79.9375 55.1813C88.3313 52.8438 97.4687 51.675 106.5 51.675C115.531 51.675 124.669 52.8438 133.062 55.1813C153.356 41.475 162.281 44.3438 162.281 44.3438C168.125 58.6875 164.406 69.7375 163.344 72.3937C170.25 79.9375 174.287 89.3937 174.287 101.188C174.287 141.775 149.425 150.7 125.731 153.356C129.556 156.65 133.062 163.131 133.062 173.013V202.125C133.062 204.994 134.763 208.394 140.181 207.438C182.363 193.2 212.75 153.463 212.75 106.5C212.75 92.5471 210.002 78.7307 204.662 65.8399C199.323 52.949 191.496 41.2361 181.63 31.3699C171.764 21.5037 160.051 13.6774 147.16 8.3378C134.269 2.99824 120.453 0.25 106.5 0.25Z" fill="black"/>
</svg>
