<svg width="40" height="40" viewBox="0 0 40 40" fill="none" xmlns="http://www.w3.org/2000/svg">
<g clip-path="url(#clip0_46_66)">
<path fill-rule="evenodd" clip-rule="evenodd" d="M20 3.33334C10.795 3.33334 3.33337 10.795 3.33337 20C3.33337 23.15 4.20837 26.1 5.73004 28.6133L4.24337 33.6667C4.15802 33.9568 4.1524 34.2646 4.22711 34.5576C4.30183 34.8507 4.45412 35.1182 4.66797 35.3321C4.88183 35.5459 5.14934 35.6982 5.4424 35.7729C5.73546 35.8477 6.04324 35.842 6.33337 35.7567L11.3867 34.27C13.9846 35.8416 16.9638 36.6705 20 36.6667C29.205 36.6667 36.6667 29.205 36.6667 20C36.6667 10.795 29.205 3.33334 20 3.33334ZM16.23 23.7717C19.6017 27.1417 22.82 27.5867 23.9567 27.6283C25.685 27.6917 27.3684 26.3717 28.0234 24.84C28.1054 24.6493 28.135 24.4402 28.1092 24.2343C28.0834 24.0283 28.0032 23.8329 27.8767 23.6683C26.9634 22.5017 25.7284 21.6633 24.5217 20.83C24.2699 20.6554 23.9602 20.5853 23.6577 20.6344C23.3553 20.6835 23.0837 20.848 22.9 21.0933L21.9 22.6183C21.8472 22.7 21.7653 22.7585 21.6709 22.7821C21.5765 22.8056 21.4767 22.7923 21.3917 22.745C20.7134 22.3567 19.725 21.6967 19.015 20.9867C18.305 20.2767 17.685 19.3333 17.3367 18.6983C17.2946 18.6174 17.2827 18.5242 17.3031 18.4353C17.3236 18.3464 17.3751 18.2677 17.4484 18.2133L18.9884 17.07C19.2088 16.8793 19.3511 16.614 19.388 16.3249C19.4249 16.0358 19.3538 15.7433 19.1884 15.5033C18.4417 14.41 17.5717 13.02 16.31 12.0983C16.1469 11.9811 15.9562 11.908 15.7565 11.8861C15.5567 11.8642 15.3547 11.8943 15.17 11.9733C13.6367 12.63 12.31 14.3133 12.3734 16.045C12.415 17.1817 12.86 20.4 16.23 23.7717Z" fill="#A63232"/>
</g>
<defs>
<clipPath id="clip0_46_66">
<rect width="40" height="40" fill="white"/>
</clipPath>
</defs>
</svg>
